  0
SECTION
  2
HEADER
  9
$ACADVER
  1
AC1009
  9
$EXTMIN
 10
0.0
 20
0.0
 30
0.0
  9
$EXTMAX
 10
1000.0
 20
1000.0
 30
0.0
  9
$FILLMODE
 70
 0
  9
$SPLFRAME
 70
 1
  0
ENDSEC
  0
SECTION
  2
TABLES
  0
TABLE
  2
LAYER
 70
1
  0
LAYER
  2
0
 70
     0
 62
     7
  6
CONTINUOUS
  0
ENDTAB
  0
ENDSEC
  0
SECTION
  2
ENTITIES
  0
LINE
  8
0
 62
     0
 10
0.0950846
 20
77.5159
 30
0.0
 11
77.246
 21
77.5159
 31
0.0
  0
LINE
  8
0
 62
     0
 10
77.246
 20
77.5159
 30
0.0
 11
77.246
 21
0.365181
 31
0.0
  0
LINE
  8
0
 62
     0
 10
77.246
 20
0.365181
 30
0.0
 11
0.0950846
 21
0.365181
 31
0.0
  0
LINE
  8
0
 62
     0
 10
0.0950846
 20
0.365181
 30
0.0
 11
0.0950846
 21
77.5159
 31
0.0
  0
LINE
  8
0
 62
     0
 10
3.63114
 20
5.79328
 30
0.0
 11
3.21221
 21
5.57967
 31
0.0
  0
LINE
  8
0
 62
     0
 10
3.21221
 20
5.57967
 30
0.0
 11
2.8801
 21
5.24757
 31
0.0
  0
LINE
  8
0
 62
     0
 10
2.8801
 20
5.24757
 30
0.0
 11
2.66788
 21
4.83002
 31
0.0
  0
LINE
  8
0
 62
     0
 10
2.66788
 20
4.83002
 30
0.0
 11
2.59347
 21
4.36563
 31
0.0
  0
LINE
  8
0
 62
     0
 10
2.59347
 20
4.36563
 30
0.0
 11
2.66788
 21
3.9026
 31
0.0
  0
LINE
  8
0
 62
     0
 10
2.66788
 20
3.9026
 30
0.0
 11
2.8801
 21
3.48506
 31
0.0
  0
LINE
  8
0
 62
     0
 10
2.8801
 20
3.48506
 30
0.0
 11
3.21221
 21
3.15295
 31
0.0
  0
LINE
  8
0
 62
     0
 10
3.21221
 20
3.15295
 30
0.0
 11
3.63114
 21
2.93936
 31
0.0
  0
LINE
  8
0
 62
     0
 10
3.63114
 20
2.93936
 30
0.0
 11
4.09416
 21
2.86494
 31
0.0
  0
LINE
  8
0
 62
     0
 10
4.09416
 20
2.86494
 30
0.0
 11
4.55718
 21
2.93936
 31
0.0
  0
LINE
  8
0
 62
     0
 10
4.55718
 20
2.93936
 30
0.0
 11
4.97611
 21
3.15295
 31
0.0
  0
LINE
  8
0
 62
     0
 10
4.97611
 20
3.15295
 30
0.0
 11
5.30684
 21
3.48506
 31
0.0
  0
LINE
  8
0
 62
     0
 10
5.30684
 20
3.48506
 30
0.0
 11
5.52041
 21
3.9026
 31
0.0
  0
LINE
  8
0
 62
     0
 10
5.52041
 20
3.9026
 30
0.0
 11
5.59484
 21
4.36563
 31
0.0
  0
LINE
  8
0
 62
     0
 10
5.59484
 20
4.36563
 30
0.0
 11
5.52041
 21
4.83002
 31
0.0
  0
LINE
  8
0
 62
     0
 10
5.52041
 20
4.83002
 30
0.0
 11
5.30684
 21
5.24757
 31
0.0
  0
LINE
  8
0
 62
     0
 10
5.30684
 20
5.24757
 30
0.0
 11
4.97611
 21
5.57967
 31
0.0
  0
LINE
  8
0
 62
     0
 10
4.97611
 20
5.57967
 30
0.0
 11
4.55718
 21
5.79328
 31
0.0
  0
LINE
  8
0
 62
     0
 10
4.55718
 20
5.79328
 30
0.0
 11
4.09416
 21
5.86631
 31
0.0
  0
LINE
  8
0
 62
     0
 10
4.09416
 20
5.86631
 30
0.0
 11
3.63114
 21
5.79328
 31
0.0
  0
LINE
  8
0
 62
     0
 10
72.7812
 20
5.79328
 30
0.0
 11
72.3635
 21
5.57967
 31
0.0
  0
LINE
  8
0
 62
     0
 10
72.3635
 20
5.57967
 30
0.0
 11
72.0316
 21
5.24757
 31
0.0
  0
LINE
  8
0
 62
     0
 10
72.0316
 20
5.24757
 30
0.0
 11
71.8178
 21
4.83002
 31
0.0
  0
LINE
  8
0
 62
     0
 10
71.8178
 20
4.83002
 30
0.0
 11
71.7448
 21
4.36563
 31
0.0
  0
LINE
  8
0
 62
     0
 10
71.7448
 20
4.36563
 30
0.0
 11
71.8178
 21
3.9026
 31
0.0
  0
LINE
  8
0
 62
     0
 10
71.8178
 20
3.9026
 30
0.0
 11
72.0316
 21
3.48506
 31
0.0
  0
LINE
  8
0
 62
     0
 10
72.0316
 20
3.48506
 30
0.0
 11
72.3635
 21
3.15295
 31
0.0
  0
LINE
  8
0
 62
     0
 10
72.3635
 20
3.15295
 30
0.0
 11
72.7812
 21
2.93936
 31
0.0
  0
LINE
  8
0
 62
     0
 10
72.7812
 20
2.93936
 30
0.0
 11
73.2455
 21
2.86494
 31
0.0
  0
LINE
  8
0
 62
     0
 10
73.2455
 20
2.86494
 30
0.0
 11
73.7087
 21
2.93936
 31
0.0
  0
LINE
  8
0
 62
     0
 10
73.7087
 20
2.93936
 30
0.0
 11
74.126
 21
3.15295
 31
0.0
  0
LINE
  8
0
 62
     0
 10
74.126
 20
3.15295
 30
0.0
 11
74.4583
 21
3.48506
 31
0.0
  0
LINE
  8
0
 62
     0
 10
74.4583
 20
3.48506
 30
0.0
 11
74.6718
 21
3.9026
 31
0.0
  0
LINE
  8
0
 62
     0
 10
74.6718
 20
3.9026
 30
0.0
 11
74.7462
 21
4.36563
 31
0.0
  0
LINE
  8
0
 62
     0
 10
74.7462
 20
4.36563
 30
0.0
 11
74.6718
 21
4.83002
 31
0.0
  0
LINE
  8
0
 62
     0
 10
74.6718
 20
4.83002
 30
0.0
 11
74.4583
 21
5.24757
 31
0.0
  0
LINE
  8
0
 62
     0
 10
74.4583
 20
5.24757
 30
0.0
 11
74.126
 21
5.57967
 31
0.0
  0
LINE
  8
0
 62
     0
 10
74.126
 20
5.57967
 30
0.0
 11
73.7087
 21
5.79328
 31
0.0
  0
LINE
  8
0
 62
     0
 10
73.7087
 20
5.79328
 30
0.0
 11
73.2455
 21
5.86631
 31
0.0
  0
LINE
  8
0
 62
     0
 10
73.2455
 20
5.86631
 30
0.0
 11
72.7812
 21
5.79328
 31
0.0
  0
LINE
  8
0
 62
     0
 10
50.7199
 20
26.8911
 30
0.0
 11
50.7199
 21
25.8919
 31
0.0
  0
LINE
  8
0
 62
     0
 10
50.7199
 20
25.8919
 30
0.0
 11
49.9195
 21
25.8919
 31
0.0
  0
LINE
  8
0
 62
     0
 10
49.9195
 20
25.8919
 30
0.0
 11
49.9195
 21
22.7914
 31
0.0
  0
LINE
  8
0
 62
     0
 10
49.9195
 20
22.7914
 30
0.0
 11
50.7199
 21
22.7914
 31
0.0
  0
LINE
  8
0
 62
     0
 10
50.7199
 20
22.7914
 30
0.0
 11
50.7199
 21
16.9912
 31
0.0
  0
LINE
  8
0
 62
     0
 10
50.7199
 20
16.9912
 30
0.0
 11
49.9195
 21
16.9912
 31
0.0
  0
LINE
  8
0
 62
     0
 10
49.9195
 20
16.9912
 30
0.0
 11
49.9195
 21
13.892
 31
0.0
  0
LINE
  8
0
 62
     0
 10
49.9195
 20
13.892
 30
0.0
 11
50.7199
 21
13.892
 31
0.0
  0
LINE
  8
0
 62
     0
 10
50.7199
 20
13.892
 30
0.0
 11
50.7199
 21
12.8916
 31
0.0
  0
LINE
  8
0
 62
     0
 10
50.7199
 20
12.8916
 30
0.0
 11
64.7196
 21
12.8916
 31
0.0
  0
LINE
  8
0
 62
     0
 10
64.7196
 20
12.8916
 30
0.0
 11
64.7196
 21
13.892
 31
0.0
  0
LINE
  8
0
 62
     0
 10
64.7196
 20
13.892
 30
0.0
 11
65.519
 21
13.892
 31
0.0
  0
LINE
  8
0
 62
     0
 10
65.519
 20
13.892
 30
0.0
 11
65.519
 21
16.9912
 31
0.0
  0
LINE
  8
0
 62
     0
 10
65.519
 20
16.9912
 30
0.0
 11
64.7196
 21
16.9912
 31
0.0
  0
LINE
  8
0
 62
     0
 10
64.7196
 20
16.9912
 30
0.0
 11
64.7196
 21
22.7914
 31
0.0
  0
LINE
  8
0
 62
     0
 10
64.7196
 20
22.7914
 30
0.0
 11
65.519
 21
22.7914
 31
0.0
  0
LINE
  8
0
 62
     0
 10
65.519
 20
22.7914
 30
0.0
 11
65.519
 21
25.8919
 31
0.0
  0
LINE
  8
0
 62
     0
 10
65.519
 20
25.8919
 30
0.0
 11
64.7196
 21
25.8919
 31
0.0
  0
LINE
  8
0
 62
     0
 10
64.7196
 20
25.8919
 30
0.0
 11
64.7196
 21
26.8911
 31
0.0
  0
LINE
  8
0
 62
     0
 10
64.7196
 20
26.8911
 30
0.0
 11
50.7199
 21
26.8911
 31
0.0
  0
LINE
  8
0
 62
     0
 10
31.6701
 20
26.8911
 30
0.0
 11
31.6701
 21
25.8919
 31
0.0
  0
LINE
  8
0
 62
     0
 10
31.6701
 20
25.8919
 30
0.0
 11
30.8694
 21
25.8919
 31
0.0
  0
LINE
  8
0
 62
     0
 10
30.8694
 20
25.8919
 30
0.0
 11
30.8694
 21
22.7914
 31
0.0
  0
LINE
  8
0
 62
     0
 10
30.8694
 20
22.7914
 30
0.0
 11
31.6701
 21
22.7914
 31
0.0
  0
LINE
  8
0
 62
     0
 10
31.6701
 20
22.7914
 30
0.0
 11
31.6701
 21
16.9912
 31
0.0
  0
LINE
  8
0
 62
     0
 10
31.6701
 20
16.9912
 30
0.0
 11
30.8694
 21
16.9912
 31
0.0
  0
LINE
  8
0
 62
     0
 10
30.8694
 20
16.9912
 30
0.0
 11
30.8694
 21
13.892
 31
0.0
  0
LINE
  8
0
 62
     0
 10
30.8694
 20
13.892
 30
0.0
 11
31.6701
 21
13.892
 31
0.0
  0
LINE
  8
0
 62
     0
 10
31.6701
 20
13.892
 30
0.0
 11
31.6701
 21
12.8916
 31
0.0
  0
LINE
  8
0
 62
     0
 10
31.6701
 20
12.8916
 30
0.0
 11
45.6696
 21
12.8916
 31
0.0
  0
LINE
  8
0
 62
     0
 10
45.6696
 20
12.8916
 30
0.0
 11
45.6696
 21
13.892
 31
0.0
  0
LINE
  8
0
 62
     0
 10
45.6696
 20
13.892
 30
0.0
 11
46.4689
 21
13.892
 31
0.0
  0
LINE
  8
0
 62
     0
 10
46.4689
 20
13.892
 30
0.0
 11
46.4689
 21
16.9912
 31
0.0
  0
LINE
  8
0
 62
     0
 10
46.4689
 20
16.9912
 30
0.0
 11
45.6696
 21
16.9912
 31
0.0
  0
LINE
  8
0
 62
     0
 10
45.6696
 20
16.9912
 30
0.0
 11
45.6696
 21
22.7914
 31
0.0
  0
LINE
  8
0
 62
     0
 10
45.6696
 20
22.7914
 30
0.0
 11
46.4689
 21
22.7914
 31
0.0
  0
LINE
  8
0
 62
     0
 10
46.4689
 20
22.7914
 30
0.0
 11
46.4689
 21
25.8919
 31
0.0
  0
LINE
  8
0
 62
     0
 10
46.4689
 20
25.8919
 30
0.0
 11
45.6696
 21
25.8919
 31
0.0
  0
LINE
  8
0
 62
     0
 10
45.6696
 20
25.8919
 30
0.0
 11
45.6696
 21
26.8911
 31
0.0
  0
LINE
  8
0
 62
     0
 10
45.6696
 20
26.8911
 30
0.0
 11
31.6701
 21
26.8911
 31
0.0
  0
LINE
  8
0
 62
     0
 10
12.6201
 20
26.8911
 30
0.0
 11
12.6201
 21
25.8919
 31
0.0
  0
LINE
  8
0
 62
     0
 10
12.6201
 20
25.8919
 30
0.0
 11
11.8181
 21
25.8919
 31
0.0
  0
LINE
  8
0
 62
     0
 10
11.8181
 20
25.8919
 30
0.0
 11
11.8181
 21
22.7914
 31
0.0
  0
LINE
  8
0
 62
     0
 10
11.8181
 20
22.7914
 30
0.0
 11
12.6201
 21
22.7914
 31
0.0
  0
LINE
  8
0
 62
     0
 10
12.6201
 20
22.7914
 30
0.0
 11
12.6201
 21
16.9912
 31
0.0
  0
LINE
  8
0
 62
     0
 10
12.6201
 20
16.9912
 30
0.0
 11
11.8181
 21
16.9912
 31
0.0
  0
LINE
  8
0
 62
     0
 10
11.8181
 20
16.9912
 30
0.0
 11
11.8181
 21
13.892
 31
0.0
  0
LINE
  8
0
 62
     0
 10
11.8181
 20
13.892
 30
0.0
 11
12.6201
 21
13.892
 31
0.0
  0
LINE
  8
0
 62
     0
 10
12.6201
 20
13.892
 30
0.0
 11
12.6201
 21
12.8916
 31
0.0
  0
LINE
  8
0
 62
     0
 10
12.6201
 20
12.8916
 30
0.0
 11
26.6196
 21
12.8916
 31
0.0
  0
LINE
  8
0
 62
     0
 10
26.6196
 20
12.8916
 30
0.0
 11
26.6196
 21
13.892
 31
0.0
  0
LINE
  8
0
 62
     0
 10
26.6196
 20
13.892
 30
0.0
 11
27.4175
 21
13.892
 31
0.0
  0
LINE
  8
0
 62
     0
 10
27.4175
 20
13.892
 30
0.0
 11
27.4175
 21
16.9912
 31
0.0
  0
LINE
  8
0
 62
     0
 10
27.4175
 20
16.9912
 30
0.0
 11
26.6196
 21
16.9912
 31
0.0
  0
LINE
  8
0
 62
     0
 10
26.6196
 20
16.9912
 30
0.0
 11
26.6196
 21
22.7914
 31
0.0
  0
LINE
  8
0
 62
     0
 10
26.6196
 20
22.7914
 30
0.0
 11
27.4175
 21
22.7914
 31
0.0
  0
LINE
  8
0
 62
     0
 10
27.4175
 20
22.7914
 30
0.0
 11
27.4175
 21
25.8919
 31
0.0
  0
LINE
  8
0
 62
     0
 10
27.4175
 20
25.8919
 30
0.0
 11
26.6196
 21
25.8919
 31
0.0
  0
LINE
  8
0
 62
     0
 10
26.6196
 20
25.8919
 30
0.0
 11
26.6196
 21
26.8911
 31
0.0
  0
LINE
  8
0
 62
     0
 10
26.6196
 20
26.8911
 30
0.0
 11
12.6201
 21
26.8911
 31
0.0
  0
LINE
  8
0
 62
     0
 10
50.7199
 20
45.9412
 30
0.0
 11
50.7199
 21
44.9421
 31
0.0
  0
LINE
  8
0
 62
     0
 10
50.7199
 20
44.9421
 30
0.0
 11
49.9195
 21
44.9421
 31
0.0
  0
LINE
  8
0
 62
     0
 10
49.9195
 20
44.9421
 30
0.0
 11
49.9195
 21
41.8412
 31
0.0
  0
LINE
  8
0
 62
     0
 10
49.9195
 20
41.8412
 30
0.0
 11
50.7199
 21
41.8412
 31
0.0
  0
LINE
  8
0
 62
     0
 10
50.7199
 20
41.8412
 30
0.0
 11
50.7199
 21
36.0412
 31
0.0
  0
LINE
  8
0
 62
     0
 10
50.7199
 20
36.0412
 30
0.0
 11
49.9195
 21
36.0412
 31
0.0
  0
LINE
  8
0
 62
     0
 10
49.9195
 20
36.0412
 30
0.0
 11
49.9195
 21
32.942
 31
0.0
  0
LINE
  8
0
 62
     0
 10
49.9195
 20
32.942
 30
0.0
 11
50.7199
 21
32.942
 31
0.0
  0
LINE
  8
0
 62
     0
 10
50.7199
 20
32.942
 30
0.0
 11
50.7199
 21
31.9416
 31
0.0
  0
LINE
  8
0
 62
     0
 10
50.7199
 20
31.9416
 30
0.0
 11
64.7196
 21
31.9416
 31
0.0
  0
LINE
  8
0
 62
     0
 10
64.7196
 20
31.9416
 30
0.0
 11
64.7196
 21
32.942
 31
0.0
  0
LINE
  8
0
 62
     0
 10
64.7196
 20
32.942
 30
0.0
 11
65.519
 21
32.942
 31
0.0
  0
LINE
  8
0
 62
     0
 10
65.519
 20
32.942
 30
0.0
 11
65.519
 21
36.0412
 31
0.0
  0
LINE
  8
0
 62
     0
 10
65.519
 20
36.0412
 30
0.0
 11
64.7196
 21
36.0412
 31
0.0
  0
LINE
  8
0
 62
     0
 10
64.7196
 20
36.0412
 30
0.0
 11
64.7196
 21
41.8412
 31
0.0
  0
LINE
  8
0
 62
     0
 10
64.7196
 20
41.8412
 30
0.0
 11
65.519
 21
41.8412
 31
0.0
  0
LINE
  8
0
 62
     0
 10
65.519
 20
41.8412
 30
0.0
 11
65.519
 21
44.9421
 31
0.0
  0
LINE
  8
0
 62
     0
 10
65.519
 20
44.9421
 30
0.0
 11
64.7196
 21
44.9421
 31
0.0
  0
LINE
  8
0
 62
     0
 10
64.7196
 20
44.9421
 30
0.0
 11
64.7196
 21
45.9412
 31
0.0
  0
LINE
  8
0
 62
     0
 10
64.7196
 20
45.9412
 30
0.0
 11
50.7199
 21
45.9412
 31
0.0
  0
LINE
  8
0
 62
     0
 10
31.6701
 20
45.9412
 30
0.0
 11
31.6701
 21
44.9421
 31
0.0
  0
LINE
  8
0
 62
     0
 10
31.6701
 20
44.9421
 30
0.0
 11
30.8694
 21
44.9421
 31
0.0
  0
LINE
  8
0
 62
     0
 10
30.8694
 20
44.9421
 30
0.0
 11
30.8694
 21
41.8412
 31
0.0
  0
LINE
  8
0
 62
     0
 10
30.8694
 20
41.8412
 30
0.0
 11
31.6701
 21
41.8412
 31
0.0
  0
LINE
  8
0
 62
     0
 10
31.6701
 20
41.8412
 30
0.0
 11
31.6701
 21
36.0412
 31
0.0
  0
LINE
  8
0
 62
     0
 10
31.6701
 20
36.0412
 30
0.0
 11
30.8694
 21
36.0412
 31
0.0
  0
LINE
  8
0
 62
     0
 10
30.8694
 20
36.0412
 30
0.0
 11
30.8694
 21
32.942
 31
0.0
  0
LINE
  8
0
 62
     0
 10
30.8694
 20
32.942
 30
0.0
 11
31.6701
 21
32.942
 31
0.0
  0
LINE
  8
0
 62
     0
 10
31.6701
 20
32.942
 30
0.0
 11
31.6701
 21
31.9416
 31
0.0
  0
LINE
  8
0
 62
     0
 10
31.6701
 20
31.9416
 30
0.0
 11
45.6696
 21
31.9416
 31
0.0
  0
LINE
  8
0
 62
     0
 10
45.6696
 20
31.9416
 30
0.0
 11
45.6696
 21
32.942
 31
0.0
  0
LINE
  8
0
 62
     0
 10
45.6696
 20
32.942
 30
0.0
 11
46.4689
 21
32.942
 31
0.0
  0
LINE
  8
0
 62
     0
 10
46.4689
 20
32.942
 30
0.0
 11
46.4689
 21
36.0412
 31
0.0
  0
LINE
  8
0
 62
     0
 10
46.4689
 20
36.0412
 30
0.0
 11
45.6696
 21
36.0412
 31
0.0
  0
LINE
  8
0
 62
     0
 10
45.6696
 20
36.0412
 30
0.0
 11
45.6696
 21
41.8412
 31
0.0
  0
LINE
  8
0
 62
     0
 10
45.6696
 20
41.8412
 30
0.0
 11
46.4689
 21
41.8412
 31
0.0
  0
LINE
  8
0
 62
     0
 10
46.4689
 20
41.8412
 30
0.0
 11
46.4689
 21
44.9421
 31
0.0
  0
LINE
  8
0
 62
     0
 10
46.4689
 20
44.9421
 30
0.0
 11
45.6696
 21
44.9421
 31
0.0
  0
LINE
  8
0
 62
     0
 10
45.6696
 20
44.9421
 30
0.0
 11
45.6696
 21
45.9412
 31
0.0
  0
LINE
  8
0
 62
     0
 10
45.6696
 20
45.9412
 30
0.0
 11
31.6701
 21
45.9412
 31
0.0
  0
LINE
  8
0
 62
     0
 10
12.6201
 20
45.9412
 30
0.0
 11
12.6201
 21
44.9421
 31
0.0
  0
LINE
  8
0
 62
     0
 10
12.6201
 20
44.9421
 30
0.0
 11
11.8181
 21
44.9421
 31
0.0
  0
LINE
  8
0
 62
     0
 10
11.8181
 20
44.9421
 30
0.0
 11
11.8181
 21
41.8412
 31
0.0
  0
LINE
  8
0
 62
     0
 10
11.8181
 20
41.8412
 30
0.0
 11
12.6201
 21
41.8412
 31
0.0
  0
LINE
  8
0
 62
     0
 10
12.6201
 20
41.8412
 30
0.0
 11
12.6201
 21
36.0412
 31
0.0
  0
LINE
  8
0
 62
     0
 10
12.6201
 20
36.0412
 30
0.0
 11
11.8181
 21
36.0412
 31
0.0
  0
LINE
  8
0
 62
     0
 10
11.8181
 20
36.0412
 30
0.0
 11
11.8181
 21
32.942
 31
0.0
  0
LINE
  8
0
 62
     0
 10
11.8181
 20
32.942
 30
0.0
 11
12.6201
 21
32.942
 31
0.0
  0
LINE
  8
0
 62
     0
 10
12.6201
 20
32.942
 30
0.0
 11
12.6201
 21
31.9416
 31
0.0
  0
LINE
  8
0
 62
     0
 10
12.6201
 20
31.9416
 30
0.0
 11
26.6196
 21
31.9416
 31
0.0
  0
LINE
  8
0
 62
     0
 10
26.6196
 20
31.9416
 30
0.0
 11
26.6196
 21
32.942
 31
0.0
  0
LINE
  8
0
 62
     0
 10
26.6196
 20
32.942
 30
0.0
 11
27.4175
 21
32.942
 31
0.0
  0
LINE
  8
0
 62
     0
 10
27.4175
 20
32.942
 30
0.0
 11
27.4175
 21
36.0412
 31
0.0
  0
LINE
  8
0
 62
     0
 10
27.4175
 20
36.0412
 30
0.0
 11
26.6196
 21
36.0412
 31
0.0
  0
LINE
  8
0
 62
     0
 10
26.6196
 20
36.0412
 30
0.0
 11
26.6196
 21
41.8412
 31
0.0
  0
LINE
  8
0
 62
     0
 10
26.6196
 20
41.8412
 30
0.0
 11
27.4175
 21
41.8412
 31
0.0
  0
LINE
  8
0
 62
     0
 10
27.4175
 20
41.8412
 30
0.0
 11
27.4175
 21
44.9421
 31
0.0
  0
LINE
  8
0
 62
     0
 10
27.4175
 20
44.9421
 30
0.0
 11
26.6196
 21
44.9421
 31
0.0
  0
LINE
  8
0
 62
     0
 10
26.6196
 20
44.9421
 30
0.0
 11
26.6196
 21
45.9412
 31
0.0
  0
LINE
  8
0
 62
     0
 10
26.6196
 20
45.9412
 30
0.0
 11
12.6201
 21
45.9412
 31
0.0
  0
LINE
  8
0
 62
     0
 10
50.7199
 20
64.9912
 30
0.0
 11
50.7199
 21
63.9921
 31
0.0
  0
LINE
  8
0
 62
     0
 10
50.7199
 20
63.9921
 30
0.0
 11
49.9195
 21
63.9921
 31
0.0
  0
LINE
  8
0
 62
     0
 10
49.9195
 20
63.9921
 30
0.0
 11
49.9195
 21
60.8912
 31
0.0
  0
LINE
  8
0
 62
     0
 10
49.9195
 20
60.8912
 30
0.0
 11
50.7199
 21
60.8912
 31
0.0
  0
LINE
  8
0
 62
     0
 10
50.7199
 20
60.8912
 30
0.0
 11
50.7199
 21
55.0926
 31
0.0
  0
LINE
  8
0
 62
     0
 10
50.7199
 20
55.0926
 30
0.0
 11
49.9195
 21
55.0926
 31
0.0
  0
LINE
  8
0
 62
     0
 10
49.9195
 20
55.0926
 30
0.0
 11
49.9195
 21
51.992
 31
0.0
  0
LINE
  8
0
 62
     0
 10
49.9195
 20
51.992
 30
0.0
 11
50.7199
 21
51.992
 31
0.0
  0
LINE
  8
0
 62
     0
 10
50.7199
 20
51.992
 30
0.0
 11
50.7199
 21
50.9916
 31
0.0
  0
LINE
  8
0
 62
     0
 10
50.7199
 20
50.9916
 30
0.0
 11
64.7196
 21
50.9916
 31
0.0
  0
LINE
  8
0
 62
     0
 10
64.7196
 20
50.9916
 30
0.0
 11
64.7196
 21
51.992
 31
0.0
  0
LINE
  8
0
 62
     0
 10
64.7196
 20
51.992
 30
0.0
 11
65.519
 21
51.992
 31
0.0
  0
LINE
  8
0
 62
     0
 10
65.519
 20
51.992
 30
0.0
 11
65.519
 21
55.0926
 31
0.0
  0
LINE
  8
0
 62
     0
 10
65.519
 20
55.0926
 30
0.0
 11
64.7196
 21
55.0926
 31
0.0
  0
LINE
  8
0
 62
     0
 10
64.7196
 20
55.0926
 30
0.0
 11
64.7196
 21
60.8912
 31
0.0
  0
LINE
  8
0
 62
     0
 10
64.7196
 20
60.8912
 30
0.0
 11
65.519
 21
60.8912
 31
0.0
  0
LINE
  8
0
 62
     0
 10
65.519
 20
60.8912
 30
0.0
 11
65.519
 21
63.9921
 31
0.0
  0
LINE
  8
0
 62
     0
 10
65.519
 20
63.9921
 30
0.0
 11
64.7196
 21
63.9921
 31
0.0
  0
LINE
  8
0
 62
     0
 10
64.7196
 20
63.9921
 30
0.0
 11
64.7196
 21
64.9912
 31
0.0
  0
LINE
  8
0
 62
     0
 10
64.7196
 20
64.9912
 30
0.0
 11
50.7199
 21
64.9912
 31
0.0
  0
LINE
  8
0
 62
     0
 10
31.6701
 20
64.9912
 30
0.0
 11
31.6701
 21
63.9921
 31
0.0
  0
LINE
  8
0
 62
     0
 10
31.6701
 20
63.9921
 30
0.0
 11
30.8694
 21
63.9921
 31
0.0
  0
LINE
  8
0
 62
     0
 10
30.8694
 20
63.9921
 30
0.0
 11
30.8694
 21
60.8912
 31
0.0
  0
LINE
  8
0
 62
     0
 10
30.8694
 20
60.8912
 30
0.0
 11
31.6701
 21
60.8912
 31
0.0
  0
LINE
  8
0
 62
     0
 10
31.6701
 20
60.8912
 30
0.0
 11
31.6701
 21
55.0926
 31
0.0
  0
LINE
  8
0
 62
     0
 10
31.6701
 20
55.0926
 30
0.0
 11
30.8694
 21
55.0926
 31
0.0
  0
LINE
  8
0
 62
     0
 10
30.8694
 20
55.0926
 30
0.0
 11
30.8694
 21
51.992
 31
0.0
  0
LINE
  8
0
 62
     0
 10
30.8694
 20
51.992
 30
0.0
 11
31.6701
 21
51.992
 31
0.0
  0
LINE
  8
0
 62
     0
 10
31.6701
 20
51.992
 30
0.0
 11
31.6701
 21
50.9916
 31
0.0
  0
LINE
  8
0
 62
     0
 10
31.6701
 20
50.9916
 30
0.0
 11
45.6696
 21
50.9916
 31
0.0
  0
LINE
  8
0
 62
     0
 10
45.6696
 20
50.9916
 30
0.0
 11
45.6696
 21
51.992
 31
0.0
  0
LINE
  8
0
 62
     0
 10
45.6696
 20
51.992
 30
0.0
 11
46.4689
 21
51.992
 31
0.0
  0
LINE
  8
0
 62
     0
 10
46.4689
 20
51.992
 30
0.0
 11
46.4689
 21
55.0926
 31
0.0
  0
LINE
  8
0
 62
     0
 10
46.4689
 20
55.0926
 30
0.0
 11
45.6696
 21
55.0926
 31
0.0
  0
LINE
  8
0
 62
     0
 10
45.6696
 20
55.0926
 30
0.0
 11
45.6696
 21
60.8912
 31
0.0
  0
LINE
  8
0
 62
     0
 10
45.6696
 20
60.8912
 30
0.0
 11
46.4689
 21
60.8912
 31
0.0
  0
LINE
  8
0
 62
     0
 10
46.4689
 20
60.8912
 30
0.0
 11
46.4689
 21
63.9921
 31
0.0
  0
LINE
  8
0
 62
     0
 10
46.4689
 20
63.9921
 30
0.0
 11
45.6696
 21
63.9921
 31
0.0
  0
LINE
  8
0
 62
     0
 10
45.6696
 20
63.9921
 30
0.0
 11
45.6696
 21
64.9912
 31
0.0
  0
LINE
  8
0
 62
     0
 10
45.6696
 20
64.9912
 30
0.0
 11
31.6701
 21
64.9912
 31
0.0
  0
LINE
  8
0
 62
     0
 10
12.6201
 20
64.9912
 30
0.0
 11
12.6201
 21
63.9921
 31
0.0
  0
LINE
  8
0
 62
     0
 10
12.6201
 20
63.9921
 30
0.0
 11
11.8181
 21
63.9921
 31
0.0
  0
LINE
  8
0
 62
     0
 10
11.8181
 20
63.9921
 30
0.0
 11
11.8181
 21
60.8912
 31
0.0
  0
LINE
  8
0
 62
     0
 10
11.8181
 20
60.8912
 30
0.0
 11
12.6201
 21
60.8912
 31
0.0
  0
LINE
  8
0
 62
     0
 10
12.6201
 20
60.8912
 30
0.0
 11
12.6201
 21
55.0926
 31
0.0
  0
LINE
  8
0
 62
     0
 10
12.6201
 20
55.0926
 30
0.0
 11
11.8181
 21
55.0926
 31
0.0
  0
LINE
  8
0
 62
     0
 10
11.8181
 20
55.0926
 30
0.0
 11
11.8181
 21
51.992
 31
0.0
  0
LINE
  8
0
 62
     0
 10
11.8181
 20
51.992
 30
0.0
 11
12.6201
 21
51.992
 31
0.0
  0
LINE
  8
0
 62
     0
 10
12.6201
 20
51.992
 30
0.0
 11
12.6201
 21
50.9916
 31
0.0
  0
LINE
  8
0
 62
     0
 10
12.6201
 20
50.9916
 30
0.0
 11
26.6196
 21
50.9916
 31
0.0
  0
LINE
  8
0
 62
     0
 10
26.6196
 20
50.9916
 30
0.0
 11
26.6196
 21
51.992
 31
0.0
  0
LINE
  8
0
 62
     0
 10
26.6196
 20
51.992
 30
0.0
 11
27.4175
 21
51.992
 31
0.0
  0
LINE
  8
0
 62
     0
 10
27.4175
 20
51.992
 30
0.0
 11
27.4175
 21
55.0926
 31
0.0
  0
LINE
  8
0
 62
     0
 10
27.4175
 20
55.0926
 30
0.0
 11
26.6196
 21
55.0926
 31
0.0
  0
LINE
  8
0
 62
     0
 10
26.6196
 20
55.0926
 30
0.0
 11
26.6196
 21
60.8912
 31
0.0
  0
LINE
  8
0
 62
     0
 10
26.6196
 20
60.8912
 30
0.0
 11
27.4175
 21
60.8912
 31
0.0
  0
LINE
  8
0
 62
     0
 10
27.4175
 20
60.8912
 30
0.0
 11
27.4175
 21
63.9921
 31
0.0
  0
LINE
  8
0
 62
     0
 10
27.4175
 20
63.9921
 30
0.0
 11
26.6196
 21
63.9921
 31
0.0
  0
LINE
  8
0
 62
     0
 10
26.6196
 20
63.9921
 30
0.0
 11
26.6196
 21
64.9912
 31
0.0
  0
LINE
  8
0
 62
     0
 10
26.6196
 20
64.9912
 30
0.0
 11
12.6201
 21
64.9912
 31
0.0
  0
LINE
  8
0
 62
     0
 10
3.63114
 20
74.9434
 30
0.0
 11
3.21221
 21
74.731
 31
0.0
  0
LINE
  8
0
 62
     0
 10
3.21221
 20
74.731
 30
0.0
 11
2.8801
 21
74.3991
 31
0.0
  0
LINE
  8
0
 62
     0
 10
2.8801
 20
74.3991
 30
0.0
 11
2.66788
 21
73.98
 31
0.0
  0
LINE
  8
0
 62
     0
 10
2.66788
 20
73.98
 30
0.0
 11
2.59347
 21
73.5171
 31
0.0
  0
LINE
  8
0
 62
     0
 10
2.59347
 20
73.5171
 30
0.0
 11
2.66788
 21
73.0539
 31
0.0
  0
LINE
  8
0
 62
     0
 10
2.66788
 20
73.0539
 30
0.0
 11
2.8801
 21
72.6352
 31
0.0
  0
LINE
  8
0
 62
     0
 10
2.8801
 20
72.6352
 30
0.0
 11
3.21221
 21
72.3043
 31
0.0
  0
LINE
  8
0
 62
     0
 10
3.21221
 20
72.3043
 30
0.0
 11
3.63114
 21
72.0908
 31
0.0
  0
LINE
  8
0
 62
     0
 10
3.63114
 20
72.0908
 30
0.0
 11
4.09416
 21
72.0164
 31
0.0
  0
LINE
  8
0
 62
     0
 10
4.09416
 20
72.0164
 30
0.0
 11
4.55718
 21
72.0908
 31
0.0
  0
LINE
  8
0
 62
     0
 10
4.55718
 20
72.0908
 30
0.0
 11
4.97611
 21
72.3043
 31
0.0
  0
LINE
  8
0
 62
     0
 10
4.97611
 20
72.3043
 30
0.0
 11
5.30684
 21
72.6352
 31
0.0
  0
LINE
  8
0
 62
     0
 10
5.30684
 20
72.6352
 30
0.0
 11
5.52041
 21
73.0539
 31
0.0
  0
LINE
  8
0
 62
     0
 10
5.52041
 20
73.0539
 30
0.0
 11
5.59484
 21
73.5171
 31
0.0
  0
LINE
  8
0
 62
     0
 10
5.59484
 20
73.5171
 30
0.0
 11
5.52041
 21
73.98
 31
0.0
  0
LINE
  8
0
 62
     0
 10
5.52041
 20
73.98
 30
0.0
 11
5.30684
 21
74.3991
 31
0.0
  0
LINE
  8
0
 62
     0
 10
5.30684
 20
74.3991
 30
0.0
 11
4.97611
 21
74.731
 31
0.0
  0
LINE
  8
0
 62
     0
 10
4.97611
 20
74.731
 30
0.0
 11
4.55718
 21
74.9434
 31
0.0
  0
LINE
  8
0
 62
     0
 10
4.55718
 20
74.9434
 30
0.0
 11
4.09416
 21
75.0164
 31
0.0
  0
LINE
  8
0
 62
     0
 10
4.09416
 20
75.0164
 30
0.0
 11
3.63114
 21
74.9434
 31
0.0
  0
LINE
  8
0
 62
     0
 10
72.7812
 20
74.9434
 30
0.0
 11
72.3635
 21
74.731
 31
0.0
  0
LINE
  8
0
 62
     0
 10
72.3635
 20
74.731
 30
0.0
 11
72.0316
 21
74.3991
 31
0.0
  0
LINE
  8
0
 62
     0
 10
72.0316
 20
74.3991
 30
0.0
 11
71.8178
 21
73.98
 31
0.0
  0
LINE
  8
0
 62
     0
 10
71.8178
 20
73.98
 30
0.0
 11
71.7448
 21
73.5171
 31
0.0
  0
LINE
  8
0
 62
     0
 10
71.7448
 20
73.5171
 30
0.0
 11
71.8178
 21
73.0539
 31
0.0
  0
LINE
  8
0
 62
     0
 10
71.8178
 20
73.0539
 30
0.0
 11
72.0316
 21
72.6352
 31
0.0
  0
LINE
  8
0
 62
     0
 10
72.0316
 20
72.6352
 30
0.0
 11
72.3635
 21
72.3043
 31
0.0
  0
LINE
  8
0
 62
     0
 10
72.3635
 20
72.3043
 30
0.0
 11
72.7812
 21
72.0908
 31
0.0
  0
LINE
  8
0
 62
     0
 10
72.7812
 20
72.0908
 30
0.0
 11
73.2455
 21
72.0164
 31
0.0
  0
LINE
  8
0
 62
     0
 10
73.2455
 20
72.0164
 30
0.0
 11
73.7087
 21
72.0908
 31
0.0
  0
LINE
  8
0
 62
     0
 10
73.7087
 20
72.0908
 30
0.0
 11
74.126
 21
72.3043
 31
0.0
  0
LINE
  8
0
 62
     0
 10
74.126
 20
72.3043
 30
0.0
 11
74.4583
 21
72.6352
 31
0.0
  0
LINE
  8
0
 62
     0
 10
74.4583
 20
72.6352
 30
0.0
 11
74.6718
 21
73.0539
 31
0.0
  0
LINE
  8
0
 62
     0
 10
74.6718
 20
73.0539
 30
0.0
 11
74.7462
 21
73.5171
 31
0.0
  0
LINE
  8
0
 62
     0
 10
74.7462
 20
73.5171
 30
0.0
 11
74.6718
 21
73.98
 31
0.0
  0
LINE
  8
0
 62
     0
 10
74.6718
 20
73.98
 30
0.0
 11
74.4583
 21
74.3991
 31
0.0
  0
LINE
  8
0
 62
     0
 10
74.4583
 20
74.3991
 30
0.0
 11
74.126
 21
74.731
 31
0.0
  0
LINE
  8
0
 62
     0
 10
74.126
 20
74.731
 30
0.0
 11
73.7087
 21
74.9434
 31
0.0
  0
LINE
  8
0
 62
     0
 10
73.7087
 20
74.9434
 30
0.0
 11
73.2455
 21
75.0164
 31
0.0
  0
LINE
  8
0
 62
     0
 10
73.2455
 20
75.0164
 30
0.0
 11
72.7812
 21
74.9434
 31
0.0
  0
ENDSEC
  0
EOF
