  0
SECTION
  2
HEADER
  9
$ACADVER
  1
AC1009
  9
$EXTMIN
 10
0.0
 20
0.0
 30
0.0
  9
$EXTMAX
 10
1000.0
 20
1000.0
 30
0.0
  9
$FILLMODE
 70
 0
  9
$SPLFRAME
 70
 1
  0
ENDSEC
  0
SECTION
  2
TABLES
  0
TABLE
  2
LAYER
 70
1
  0
LAYER
  2
0
 70
     0
 62
     7
  6
CONTINUOUS
  0
ENDTAB
  0
ENDSEC
  0
SECTION
  2
ENTITIES
  0
LINE
  8
0
 62
     0
 10
65.2459
 20
67.2853
 30
0.0
 11
65.4032
 21
67.2786
 31
0.0
  0
LINE
  8
0
 62
     0
 10
65.4032
 20
67.2786
 30
0.0
 11
65.5588
 21
67.2606
 31
0.0
  0
LINE
  8
0
 62
     0
 10
65.5588
 20
67.2606
 30
0.0
 11
65.713
 21
67.2303
 31
0.0
  0
LINE
  8
0
 62
     0
 10
65.713
 20
67.2303
 30
0.0
 11
65.8647
 21
67.1876
 31
0.0
  0
LINE
  8
0
 62
     0
 10
65.8647
 20
67.1876
 30
0.0
 11
66.0121
 21
67.1326
 31
0.0
  0
LINE
  8
0
 62
     0
 10
66.0121
 20
67.1326
 30
0.0
 11
66.1539
 21
67.0676
 31
0.0
  0
LINE
  8
0
 62
     0
 10
66.1539
 20
67.0676
 30
0.0
 11
66.2905
 21
66.9907
 31
0.0
  0
LINE
  8
0
 62
     0
 10
66.2905
 20
66.9907
 30
0.0
 11
66.4214
 21
66.9036
 31
0.0
  0
LINE
  8
0
 62
     0
 10
66.4214
 20
66.9036
 30
0.0
 11
66.5441
 21
66.8059
 31
0.0
  0
LINE
  8
0
 62
     0
 10
66.5441
 20
66.8059
 30
0.0
 11
66.6598
 21
66.6997
 31
0.0
  0
LINE
  8
0
 62
     0
 10
66.6598
 20
66.6997
 30
0.0
 11
66.766
 21
66.584
 31
0.0
  0
LINE
  8
0
 62
     0
 10
66.766
 20
66.584
 30
0.0
 11
66.8651
 21
66.4616
 31
0.0
  0
LINE
  8
0
 62
     0
 10
66.8651
 20
66.4616
 30
0.0
 11
66.9519
 21
66.3303
 31
0.0
  0
LINE
  8
0
 62
     0
 10
66.9519
 20
66.3303
 30
0.0
 11
67.0292
 21
66.1928
 31
0.0
  0
LINE
  8
0
 62
     0
 10
67.0292
 20
66.1928
 30
0.0
 11
67.0941
 21
66.0506
 31
0.0
  0
LINE
  8
0
 62
     0
 10
67.0941
 20
66.0506
 30
0.0
 11
67.1491
 21
65.9045
 31
0.0
  0
LINE
  8
0
 62
     0
 10
67.1491
 20
65.9045
 30
0.0
 11
67.1904
 21
65.7518
 31
0.0
  0
LINE
  8
0
 62
     0
 10
67.1904
 20
65.7518
 30
0.0
 11
67.2222
 21
65.5987
 31
0.0
  0
LINE
  8
0
 62
     0
 10
67.2222
 20
65.5987
 30
0.0
 11
67.2402
 21
65.4417
 31
0.0
  0
LINE
  8
0
 62
     0
 10
67.2402
 20
65.4417
 30
0.0
 11
67.2454
 21
65.2847
 31
0.0
  0
LINE
  8
0
 62
     0
 10
67.2454
 20
65.2847
 30
0.0
 11
67.2469
 21
2.13458
 31
0.0
  0
LINE
  8
0
 62
     0
 10
67.2469
 20
2.13458
 30
0.0
 11
67.2402
 21
1.97749
 31
0.0
  0
LINE
  8
0
 62
     0
 10
67.2402
 20
1.97749
 30
0.0
 11
67.2222
 21
1.82177
 31
0.0
  0
LINE
  8
0
 62
     0
 10
67.2222
 20
1.82177
 30
0.0
 11
67.1904
 21
1.66743
 31
0.0
  0
LINE
  8
0
 62
     0
 10
67.1904
 20
1.66743
 30
0.0
 11
67.1491
 21
1.51584
 31
0.0
  0
LINE
  8
0
 62
     0
 10
67.1491
 20
1.51584
 30
0.0
 11
67.0941
 21
1.36839
 31
0.0
  0
LINE
  8
0
 62
     0
 10
67.0941
 20
1.36839
 30
0.0
 11
67.0292
 21
1.22645
 31
0.0
  0
LINE
  8
0
 62
     0
 10
67.0292
 20
1.22645
 30
0.0
 11
66.9519
 21
1.09003
 31
0.0
  0
LINE
  8
0
 62
     0
 10
66.9519
 20
1.09003
 30
0.0
 11
66.8651
 21
0.959115
 31
0.0
  0
LINE
  8
0
 62
     0
 10
66.8651
 20
0.959115
 30
0.0
 11
66.766
 21
0.836468
 31
0.0
  0
LINE
  8
0
 62
     0
 10
66.766
 20
0.836468
 30
0.0
 11
66.6598
 21
0.720714
 31
0.0
  0
LINE
  8
0
 62
     0
 10
66.6598
 20
0.720714
 30
0.0
 11
66.5441
 21
0.614606
 31
0.0
  0
LINE
  8
0
 62
     0
 10
66.5441
 20
0.614606
 30
0.0
 11
66.4214
 21
0.515387
 31
0.0
  0
LINE
  8
0
 62
     0
 10
66.4214
 20
0.515387
 30
0.0
 11
66.2905
 21
0.428569
 31
0.0
  0
LINE
  8
0
 62
     0
 10
66.2905
 20
0.428569
 30
0.0
 11
66.1539
 21
0.3514
 31
0.0
  0
LINE
  8
0
 62
     0
 10
66.1539
 20
0.3514
 30
0.0
 11
66.0121
 21
0.286632
 31
0.0
  0
LINE
  8
0
 62
     0
 10
66.0121
 20
0.286632
 30
0.0
 11
65.8647
 21
0.23151
 31
0.0
  0
LINE
  8
0
 62
     0
 10
65.8647
 20
0.23151
 30
0.0
 11
65.713
 21
0.190169
 31
0.0
  0
LINE
  8
0
 62
     0
 10
65.713
 20
0.190169
 30
0.0
 11
65.5588
 21
0.158474
 31
0.0
  0
LINE
  8
0
 62
     0
 10
65.5588
 20
0.158474
 30
0.0
 11
65.4032
 21
0.14056
 31
0.0
  0
LINE
  8
0
 62
     0
 10
65.4032
 20
0.14056
 30
0.0
 11
65.2459
 21
0.135048
 31
0.0
  0
LINE
  8
0
 62
     0
 10
65.2459
 20
0.135048
 30
0.0
 11
2.096
 21
0.13367
 31
0.0
  0
LINE
  8
0
 62
     0
 10
2.096
 20
0.13367
 30
0.0
 11
1.9389
 21
0.14056
 31
0.0
  0
LINE
  8
0
 62
     0
 10
1.9389
 20
0.14056
 30
0.0
 11
1.7818
 21
0.158474
 31
0.0
  0
LINE
  8
0
 62
     0
 10
1.7818
 20
0.158474
 30
0.0
 11
1.62884
 21
0.190169
 31
0.0
  0
LINE
  8
0
 62
     0
 10
1.62884
 20
0.190169
 30
0.0
 11
1.47588
 21
0.23151
 31
0.0
  0
LINE
  8
0
 62
     0
 10
1.47588
 20
0.23151
 30
0.0
 11
1.32981
 21
0.286632
 31
0.0
  0
LINE
  8
0
 62
     0
 10
1.32981
 20
0.286632
 30
0.0
 11
1.18787
 21
0.3514
 31
0.0
  0
LINE
  8
0
 62
     0
 10
1.18787
 20
0.3514
 30
0.0
 11
1.05006
 21
0.428569
 31
0.0
  0
LINE
  8
0
 62
     0
 10
1.05006
 20
0.428569
 30
0.0
 11
0.919152
 21
0.515387
 31
0.0
  0
LINE
  8
0
 62
     0
 10
0.919152
 20
0.515387
 30
0.0
 11
0.796505
 21
0.614606
 31
0.0
  0
LINE
  8
0
 62
     0
 10
0.796505
 20
0.614606
 30
0.0
 11
0.680752
 21
0.720714
 31
0.0
  0
LINE
  8
0
 62
     0
 10
0.680752
 20
0.720714
 30
0.0
 11
0.574643
 21
0.836468
 31
0.0
  0
LINE
  8
0
 62
     0
 10
0.574643
 20
0.836468
 30
0.0
 11
0.4768
 21
0.959115
 31
0.0
  0
LINE
  8
0
 62
     0
 10
0.4768
 20
0.959115
 30
0.0
 11
0.389985
 21
1.09003
 31
0.0
  0
LINE
  8
0
 62
     0
 10
0.389985
 20
1.09003
 30
0.0
 11
0.312815
 21
1.22645
 31
0.0
  0
LINE
  8
0
 62
     0
 10
0.312815
 20
1.22645
 30
0.0
 11
0.248047
 21
1.36839
 31
0.0
  0
LINE
  8
0
 62
     0
 10
0.248047
 20
1.36839
 30
0.0
 11
0.192925
 21
1.51584
 31
0.0
  0
LINE
  8
0
 62
     0
 10
0.192925
 20
1.51584
 30
0.0
 11
0.150206
 21
1.66743
 31
0.0
  0
LINE
  8
0
 62
     0
 10
0.150206
 20
1.66743
 30
0.0
 11
0.119889
 21
1.82177
 31
0.0
  0
LINE
  8
0
 62
     0
 10
0.119889
 20
1.82177
 30
0.0
 11
0.101975
 21
1.97749
 31
0.0
  0
LINE
  8
0
 62
     0
 10
0.101975
 20
1.97749
 30
0.0
 11
0.0950846
 21
2.13458
 31
0.0
  0
LINE
  8
0
 62
     0
 10
0.0950846
 20
2.13458
 30
0.0
 11
0.0950846
 21
65.2847
 31
0.0
  0
LINE
  8
0
 62
     0
 10
0.0950846
 20
65.2847
 30
0.0
 11
0.101975
 21
65.4417
 31
0.0
  0
LINE
  8
0
 62
     0
 10
0.101975
 20
65.4417
 30
0.0
 11
0.119889
 21
65.5987
 31
0.0
  0
LINE
  8
0
 62
     0
 10
0.119889
 20
65.5987
 30
0.0
 11
0.150206
 21
65.7518
 31
0.0
  0
LINE
  8
0
 62
     0
 10
0.150206
 20
65.7518
 30
0.0
 11
0.192925
 21
65.9045
 31
0.0
  0
LINE
  8
0
 62
     0
 10
0.192925
 20
65.9045
 30
0.0
 11
0.248047
 21
66.0506
 31
0.0
  0
LINE
  8
0
 62
     0
 10
0.248047
 20
66.0506
 30
0.0
 11
0.312815
 21
66.1928
 31
0.0
  0
LINE
  8
0
 62
     0
 10
0.312815
 20
66.1928
 30
0.0
 11
0.389985
 21
66.3303
 31
0.0
  0
LINE
  8
0
 62
     0
 10
0.389985
 20
66.3303
 30
0.0
 11
0.4768
 21
66.4616
 31
0.0
  0
LINE
  8
0
 62
     0
 10
0.4768
 20
66.4616
 30
0.0
 11
0.574643
 21
66.584
 31
0.0
  0
LINE
  8
0
 62
     0
 10
0.574643
 20
66.584
 30
0.0
 11
0.680752
 21
66.6997
 31
0.0
  0
LINE
  8
0
 62
     0
 10
0.680752
 20
66.6997
 30
0.0
 11
0.796505
 21
66.8059
 31
0.0
  0
LINE
  8
0
 62
     0
 10
0.796505
 20
66.8059
 30
0.0
 11
0.919152
 21
66.9036
 31
0.0
  0
LINE
  8
0
 62
     0
 10
0.919152
 20
66.9036
 30
0.0
 11
1.05006
 21
66.9907
 31
0.0
  0
LINE
  8
0
 62
     0
 10
1.05006
 20
66.9907
 30
0.0
 11
1.18787
 21
67.0676
 31
0.0
  0
LINE
  8
0
 62
     0
 10
1.18787
 20
67.0676
 30
0.0
 11
1.32981
 21
67.1326
 31
0.0
  0
LINE
  8
0
 62
     0
 10
1.32981
 20
67.1326
 30
0.0
 11
1.47588
 21
67.1876
 31
0.0
  0
LINE
  8
0
 62
     0
 10
1.47588
 20
67.1876
 30
0.0
 11
1.62884
 21
67.2303
 31
0.0
  0
LINE
  8
0
 62
     0
 10
1.62884
 20
67.2303
 30
0.0
 11
1.7818
 21
67.2606
 31
0.0
  0
LINE
  8
0
 62
     0
 10
1.7818
 20
67.2606
 30
0.0
 11
1.9389
 21
67.2786
 31
0.0
  0
LINE
  8
0
 62
     0
 10
1.9389
 20
67.2786
 30
0.0
 11
2.096
 21
67.2853
 31
0.0
  0
LINE
  8
0
 62
     0
 10
2.096
 20
67.2853
 30
0.0
 11
65.2459
 21
67.2853
 31
0.0
  0
LINE
  8
0
 62
     0
 10
2.13183
 20
4.06107
 30
0.0
 11
1.7129
 21
3.8475
 31
0.0
  0
LINE
  8
0
 62
     0
 10
1.7129
 20
3.8475
 30
0.0
 11
1.38217
 21
3.51675
 31
0.0
  0
LINE
  8
0
 62
     0
 10
1.38217
 20
3.51675
 30
0.0
 11
1.16858
 21
3.09783
 31
0.0
  0
LINE
  8
0
 62
     0
 10
1.16858
 20
3.09783
 30
0.0
 11
1.09416
 21
2.63343
 31
0.0
  0
LINE
  8
0
 62
     0
 10
1.09416
 20
2.63343
 30
0.0
 11
1.16858
 21
2.17041
 31
0.0
  0
LINE
  8
0
 62
     0
 10
1.16858
 20
2.17041
 30
0.0
 11
1.38217
 21
1.75286
 31
0.0
  0
LINE
  8
0
 62
     0
 10
1.38217
 20
1.75286
 30
0.0
 11
1.7129
 21
1.42076
 31
0.0
  0
LINE
  8
0
 62
     0
 10
1.7129
 20
1.42076
 30
0.0
 11
2.13183
 21
1.20854
 31
0.0
  0
LINE
  8
0
 62
     0
 10
2.13183
 20
1.20854
 30
0.0
 11
2.59485
 21
1.13412
 31
0.0
  0
LINE
  8
0
 62
     0
 10
2.59485
 20
1.13412
 30
0.0
 11
3.05787
 21
1.20854
 31
0.0
  0
LINE
  8
0
 62
     0
 10
3.05787
 20
1.20854
 30
0.0
 11
3.47679
 21
1.42076
 31
0.0
  0
LINE
  8
0
 62
     0
 10
3.47679
 20
1.42076
 30
0.0
 11
3.80891
 21
1.75286
 31
0.0
  0
LINE
  8
0
 62
     0
 10
3.80891
 20
1.75286
 30
0.0
 11
4.0211
 21
2.17041
 31
0.0
  0
LINE
  8
0
 62
     0
 10
4.0211
 20
2.17041
 30
0.0
 11
4.09554
 21
2.63343
 31
0.0
  0
LINE
  8
0
 62
     0
 10
4.09554
 20
2.63343
 30
0.0
 11
4.0211
 21
3.09783
 31
0.0
  0
LINE
  8
0
 62
     0
 10
4.0211
 20
3.09783
 30
0.0
 11
3.80891
 21
3.51675
 31
0.0
  0
LINE
  8
0
 62
     0
 10
3.80891
 20
3.51675
 30
0.0
 11
3.47679
 21
3.8475
 31
0.0
  0
LINE
  8
0
 62
     0
 10
3.47679
 20
3.8475
 30
0.0
 11
3.05787
 21
4.06107
 31
0.0
  0
LINE
  8
0
 62
     0
 10
3.05787
 20
4.06107
 30
0.0
 11
2.59485
 21
4.13413
 31
0.0
  0
LINE
  8
0
 62
     0
 10
2.59485
 20
4.13413
 30
0.0
 11
2.13183
 21
4.06107
 31
0.0
  0
LINE
  8
0
 62
     0
 10
64.2828
 20
4.06107
 30
0.0
 11
63.8637
 21
3.8475
 31
0.0
  0
LINE
  8
0
 62
     0
 10
63.8637
 20
3.8475
 30
0.0
 11
63.5332
 21
3.51675
 31
0.0
  0
LINE
  8
0
 62
     0
 10
63.5332
 20
3.51675
 30
0.0
 11
63.3194
 21
3.09783
 31
0.0
  0
LINE
  8
0
 62
     0
 10
63.3194
 20
3.09783
 30
0.0
 11
63.2464
 21
2.63343
 31
0.0
  0
LINE
  8
0
 62
     0
 10
63.2464
 20
2.63343
 30
0.0
 11
63.3194
 21
2.17041
 31
0.0
  0
LINE
  8
0
 62
     0
 10
63.3194
 20
2.17041
 30
0.0
 11
63.5332
 21
1.75286
 31
0.0
  0
LINE
  8
0
 62
     0
 10
63.5332
 20
1.75286
 30
0.0
 11
63.8637
 21
1.42076
 31
0.0
  0
LINE
  8
0
 62
     0
 10
63.8637
 20
1.42076
 30
0.0
 11
64.2828
 21
1.20854
 31
0.0
  0
LINE
  8
0
 62
     0
 10
64.2828
 20
1.20854
 30
0.0
 11
64.7471
 21
1.13412
 31
0.0
  0
LINE
  8
0
 62
     0
 10
64.7471
 20
1.13412
 30
0.0
 11
65.2103
 21
1.20854
 31
0.0
  0
LINE
  8
0
 62
     0
 10
65.2103
 20
1.20854
 30
0.0
 11
65.6276
 21
1.42076
 31
0.0
  0
LINE
  8
0
 62
     0
 10
65.6276
 20
1.42076
 30
0.0
 11
65.9599
 21
1.75286
 31
0.0
  0
LINE
  8
0
 62
     0
 10
65.9599
 20
1.75286
 30
0.0
 11
66.1719
 21
2.17041
 31
0.0
  0
LINE
  8
0
 62
     0
 10
66.1719
 20
2.17041
 30
0.0
 11
66.2464
 21
2.63343
 31
0.0
  0
LINE
  8
0
 62
     0
 10
66.2464
 20
2.63343
 30
0.0
 11
66.1719
 21
3.09783
 31
0.0
  0
LINE
  8
0
 62
     0
 10
66.1719
 20
3.09783
 30
0.0
 11
65.9599
 21
3.51675
 31
0.0
  0
LINE
  8
0
 62
     0
 10
65.9599
 20
3.51675
 30
0.0
 11
65.6276
 21
3.8475
 31
0.0
  0
LINE
  8
0
 62
     0
 10
65.6276
 20
3.8475
 30
0.0
 11
65.2103
 21
4.06107
 31
0.0
  0
LINE
  8
0
 62
     0
 10
65.2103
 20
4.06107
 30
0.0
 11
64.7471
 21
4.13413
 31
0.0
  0
LINE
  8
0
 62
     0
 10
64.7471
 20
4.13413
 30
0.0
 11
64.2828
 21
4.06107
 31
0.0
  0
LINE
  8
0
 62
     0
 10
45.7207
 20
21.66
 30
0.0
 11
45.7207
 21
20.6595
 31
0.0
  0
LINE
  8
0
 62
     0
 10
45.7207
 20
20.6595
 30
0.0
 11
44.9199
 21
20.6595
 31
0.0
  0
LINE
  8
0
 62
     0
 10
44.9199
 20
20.6595
 30
0.0
 11
44.9199
 21
17.5603
 31
0.0
  0
LINE
  8
0
 62
     0
 10
44.9199
 20
17.5603
 30
0.0
 11
45.7207
 21
17.5603
 31
0.0
  0
LINE
  8
0
 62
     0
 10
45.7207
 20
17.5603
 30
0.0
 11
45.7207
 21
11.7602
 31
0.0
  0
LINE
  8
0
 62
     0
 10
45.7207
 20
11.7602
 30
0.0
 11
44.9199
 21
11.7602
 31
0.0
  0
LINE
  8
0
 62
     0
 10
44.9199
 20
11.7602
 30
0.0
 11
44.9199
 21
8.6596
 31
0.0
  0
LINE
  8
0
 62
     0
 10
44.9199
 20
8.6596
 30
0.0
 11
45.7207
 21
8.6596
 31
0.0
  0
LINE
  8
0
 62
     0
 10
45.7207
 20
8.6596
 30
0.0
 11
45.7207
 21
7.6605
 31
0.0
  0
LINE
  8
0
 62
     0
 10
45.7207
 20
7.6605
 30
0.0
 11
59.72
 21
7.6605
 31
0.0
  0
LINE
  8
0
 62
     0
 10
59.72
 20
7.6605
 30
0.0
 11
59.72
 21
8.6596
 31
0.0
  0
LINE
  8
0
 62
     0
 10
59.72
 20
8.6596
 30
0.0
 11
60.5208
 21
8.6596
 31
0.0
  0
LINE
  8
0
 62
     0
 10
60.5208
 20
8.6596
 30
0.0
 11
60.5208
 21
11.7602
 31
0.0
  0
LINE
  8
0
 62
     0
 10
60.5208
 20
11.7602
 30
0.0
 11
59.72
 21
11.7602
 31
0.0
  0
LINE
  8
0
 62
     0
 10
59.72
 20
11.7602
 30
0.0
 11
59.72
 21
17.5603
 31
0.0
  0
LINE
  8
0
 62
     0
 10
59.72
 20
17.5603
 30
0.0
 11
60.5208
 21
17.5603
 31
0.0
  0
LINE
  8
0
 62
     0
 10
60.5208
 20
17.5603
 30
0.0
 11
60.5208
 21
20.6595
 31
0.0
  0
LINE
  8
0
 62
     0
 10
60.5208
 20
20.6595
 30
0.0
 11
59.72
 21
20.6595
 31
0.0
  0
LINE
  8
0
 62
     0
 10
59.72
 20
20.6595
 30
0.0
 11
59.72
 21
21.66
 31
0.0
  0
LINE
  8
0
 62
     0
 10
59.72
 20
21.66
 30
0.0
 11
45.7207
 21
21.66
 31
0.0
  0
LINE
  8
0
 62
     0
 10
26.6706
 20
21.66
 30
0.0
 11
26.6706
 21
20.6595
 31
0.0
  0
LINE
  8
0
 62
     0
 10
26.6706
 20
20.6595
 30
0.0
 11
25.8699
 21
20.6595
 31
0.0
  0
LINE
  8
0
 62
     0
 10
25.8699
 20
20.6595
 30
0.0
 11
25.8699
 21
17.5603
 31
0.0
  0
LINE
  8
0
 62
     0
 10
25.8699
 20
17.5603
 30
0.0
 11
26.6706
 21
17.5603
 31
0.0
  0
LINE
  8
0
 62
     0
 10
26.6706
 20
17.5603
 30
0.0
 11
26.6706
 21
11.7602
 31
0.0
  0
LINE
  8
0
 62
     0
 10
26.6706
 20
11.7602
 30
0.0
 11
25.8699
 21
11.7602
 31
0.0
  0
LINE
  8
0
 62
     0
 10
25.8699
 20
11.7602
 30
0.0
 11
25.8699
 21
8.6596
 31
0.0
  0
LINE
  8
0
 62
     0
 10
25.8699
 20
8.6596
 30
0.0
 11
26.6706
 21
8.6596
 31
0.0
  0
LINE
  8
0
 62
     0
 10
26.6706
 20
8.6596
 30
0.0
 11
26.6706
 21
7.6605
 31
0.0
  0
LINE
  8
0
 62
     0
 10
26.6706
 20
7.6605
 30
0.0
 11
40.67
 21
7.6605
 31
0.0
  0
LINE
  8
0
 62
     0
 10
40.67
 20
7.6605
 30
0.0
 11
40.67
 21
8.6596
 31
0.0
  0
LINE
  8
0
 62
     0
 10
40.67
 20
8.6596
 30
0.0
 11
41.4708
 21
8.6596
 31
0.0
  0
LINE
  8
0
 62
     0
 10
41.4708
 20
8.6596
 30
0.0
 11
41.4708
 21
11.7602
 31
0.0
  0
LINE
  8
0
 62
     0
 10
41.4708
 20
11.7602
 30
0.0
 11
40.67
 21
11.7602
 31
0.0
  0
LINE
  8
0
 62
     0
 10
40.67
 20
11.7602
 30
0.0
 11
40.67
 21
17.5603
 31
0.0
  0
LINE
  8
0
 62
     0
 10
40.67
 20
17.5603
 30
0.0
 11
41.4708
 21
17.5603
 31
0.0
  0
LINE
  8
0
 62
     0
 10
41.4708
 20
17.5603
 30
0.0
 11
41.4708
 21
20.6595
 31
0.0
  0
LINE
  8
0
 62
     0
 10
41.4708
 20
20.6595
 30
0.0
 11
40.67
 21
20.6595
 31
0.0
  0
LINE
  8
0
 62
     0
 10
40.67
 20
20.6595
 30
0.0
 11
40.67
 21
21.66
 31
0.0
  0
LINE
  8
0
 62
     0
 10
40.67
 20
21.66
 30
0.0
 11
26.6706
 21
21.66
 31
0.0
  0
LINE
  8
0
 62
     0
 10
7.61919
 20
21.66
 30
0.0
 11
7.61919
 21
20.6595
 31
0.0
  0
LINE
  8
0
 62
     0
 10
7.61919
 20
20.6595
 30
0.0
 11
6.8199
 21
20.6595
 31
0.0
  0
LINE
  8
0
 62
     0
 10
6.8199
 20
20.6595
 30
0.0
 11
6.8199
 21
17.5603
 31
0.0
  0
LINE
  8
0
 62
     0
 10
6.8199
 20
17.5603
 30
0.0
 11
7.61919
 21
17.5603
 31
0.0
  0
LINE
  8
0
 62
     0
 10
7.61919
 20
17.5603
 30
0.0
 11
7.61919
 21
11.7602
 31
0.0
  0
LINE
  8
0
 62
     0
 10
7.61919
 20
11.7602
 30
0.0
 11
6.8199
 21
11.7602
 31
0.0
  0
LINE
  8
0
 62
     0
 10
6.8199
 20
11.7602
 30
0.0
 11
6.8199
 21
8.6596
 31
0.0
  0
LINE
  8
0
 62
     0
 10
6.8199
 20
8.6596
 30
0.0
 11
7.61919
 21
8.6596
 31
0.0
  0
LINE
  8
0
 62
     0
 10
7.61919
 20
8.6596
 30
0.0
 11
7.61919
 21
7.6605
 31
0.0
  0
LINE
  8
0
 62
     0
 10
7.61919
 20
7.6605
 30
0.0
 11
21.6201
 21
7.6605
 31
0.0
  0
LINE
  8
0
 62
     0
 10
21.6201
 20
7.6605
 30
0.0
 11
21.6201
 21
8.6596
 31
0.0
  0
LINE
  8
0
 62
     0
 10
21.6201
 20
8.6596
 30
0.0
 11
22.4207
 21
8.6596
 31
0.0
  0
LINE
  8
0
 62
     0
 10
22.4207
 20
8.6596
 30
0.0
 11
22.4207
 21
11.7602
 31
0.0
  0
LINE
  8
0
 62
     0
 10
22.4207
 20
11.7602
 30
0.0
 11
21.6201
 21
11.7602
 31
0.0
  0
LINE
  8
0
 62
     0
 10
21.6201
 20
11.7602
 30
0.0
 11
21.6201
 21
17.5603
 31
0.0
  0
LINE
  8
0
 62
     0
 10
21.6201
 20
17.5603
 30
0.0
 11
22.4207
 21
17.5603
 31
0.0
  0
LINE
  8
0
 62
     0
 10
22.4207
 20
17.5603
 30
0.0
 11
22.4207
 21
20.6595
 31
0.0
  0
LINE
  8
0
 62
     0
 10
22.4207
 20
20.6595
 30
0.0
 11
21.6201
 21
20.6595
 31
0.0
  0
LINE
  8
0
 62
     0
 10
21.6201
 20
20.6595
 30
0.0
 11
21.6201
 21
21.66
 31
0.0
  0
LINE
  8
0
 62
     0
 10
21.6201
 20
21.66
 30
0.0
 11
7.61919
 21
21.66
 31
0.0
  0
LINE
  8
0
 62
     0
 10
45.7207
 20
40.7099
 30
0.0
 11
45.7207
 21
39.7097
 31
0.0
  0
LINE
  8
0
 62
     0
 10
45.7207
 20
39.7097
 30
0.0
 11
44.9199
 21
39.7097
 31
0.0
  0
LINE
  8
0
 62
     0
 10
44.9199
 20
39.7097
 30
0.0
 11
44.9199
 21
36.6102
 31
0.0
  0
LINE
  8
0
 62
     0
 10
44.9199
 20
36.6102
 30
0.0
 11
45.7207
 21
36.6102
 31
0.0
  0
LINE
  8
0
 62
     0
 10
45.7207
 20
36.6102
 30
0.0
 11
45.7207
 21
30.8102
 31
0.0
  0
LINE
  8
0
 62
     0
 10
45.7207
 20
30.8102
 30
0.0
 11
44.9199
 21
30.8102
 31
0.0
  0
LINE
  8
0
 62
     0
 10
44.9199
 20
30.8102
 30
0.0
 11
44.9199
 21
27.7096
 31
0.0
  0
LINE
  8
0
 62
     0
 10
44.9199
 20
27.7096
 30
0.0
 11
45.7207
 21
27.7096
 31
0.0
  0
LINE
  8
0
 62
     0
 10
45.7207
 20
27.7096
 30
0.0
 11
45.7207
 21
26.7105
 31
0.0
  0
LINE
  8
0
 62
     0
 10
45.7207
 20
26.7105
 30
0.0
 11
59.72
 21
26.7105
 31
0.0
  0
LINE
  8
0
 62
     0
 10
59.72
 20
26.7105
 30
0.0
 11
59.72
 21
27.7096
 31
0.0
  0
LINE
  8
0
 62
     0
 10
59.72
 20
27.7096
 30
0.0
 11
60.5208
 21
27.7096
 31
0.0
  0
LINE
  8
0
 62
     0
 10
60.5208
 20
27.7096
 30
0.0
 11
60.5208
 21
30.8102
 31
0.0
  0
LINE
  8
0
 62
     0
 10
60.5208
 20
30.8102
 30
0.0
 11
59.72
 21
30.8102
 31
0.0
  0
LINE
  8
0
 62
     0
 10
59.72
 20
30.8102
 30
0.0
 11
59.72
 21
36.6102
 31
0.0
  0
LINE
  8
0
 62
     0
 10
59.72
 20
36.6102
 30
0.0
 11
60.5208
 21
36.6102
 31
0.0
  0
LINE
  8
0
 62
     0
 10
60.5208
 20
36.6102
 30
0.0
 11
60.5208
 21
39.7097
 31
0.0
  0
LINE
  8
0
 62
     0
 10
60.5208
 20
39.7097
 30
0.0
 11
59.72
 21
39.7097
 31
0.0
  0
LINE
  8
0
 62
     0
 10
59.72
 20
39.7097
 30
0.0
 11
59.72
 21
40.7099
 31
0.0
  0
LINE
  8
0
 62
     0
 10
59.72
 20
40.7099
 30
0.0
 11
45.7207
 21
40.7099
 31
0.0
  0
LINE
  8
0
 62
     0
 10
26.6706
 20
40.7099
 30
0.0
 11
26.6706
 21
39.7097
 31
0.0
  0
LINE
  8
0
 62
     0
 10
26.6706
 20
39.7097
 30
0.0
 11
25.8699
 21
39.7097
 31
0.0
  0
LINE
  8
0
 62
     0
 10
25.8699
 20
39.7097
 30
0.0
 11
25.8699
 21
36.6102
 31
0.0
  0
LINE
  8
0
 62
     0
 10
25.8699
 20
36.6102
 30
0.0
 11
26.6706
 21
36.6102
 31
0.0
  0
LINE
  8
0
 62
     0
 10
26.6706
 20
36.6102
 30
0.0
 11
26.6706
 21
30.8102
 31
0.0
  0
LINE
  8
0
 62
     0
 10
26.6706
 20
30.8102
 30
0.0
 11
25.8699
 21
30.8102
 31
0.0
  0
LINE
  8
0
 62
     0
 10
25.8699
 20
30.8102
 30
0.0
 11
25.8699
 21
27.7096
 31
0.0
  0
LINE
  8
0
 62
     0
 10
25.8699
 20
27.7096
 30
0.0
 11
26.6706
 21
27.7096
 31
0.0
  0
LINE
  8
0
 62
     0
 10
26.6706
 20
27.7096
 30
0.0
 11
26.6706
 21
26.7105
 31
0.0
  0
LINE
  8
0
 62
     0
 10
26.6706
 20
26.7105
 30
0.0
 11
40.67
 21
26.7105
 31
0.0
  0
LINE
  8
0
 62
     0
 10
40.67
 20
26.7105
 30
0.0
 11
40.67
 21
27.7096
 31
0.0
  0
LINE
  8
0
 62
     0
 10
40.67
 20
27.7096
 30
0.0
 11
41.4708
 21
27.7096
 31
0.0
  0
LINE
  8
0
 62
     0
 10
41.4708
 20
27.7096
 30
0.0
 11
41.4708
 21
30.8102
 31
0.0
  0
LINE
  8
0
 62
     0
 10
41.4708
 20
30.8102
 30
0.0
 11
40.67
 21
30.8102
 31
0.0
  0
LINE
  8
0
 62
     0
 10
40.67
 20
30.8102
 30
0.0
 11
40.67
 21
36.6102
 31
0.0
  0
LINE
  8
0
 62
     0
 10
40.67
 20
36.6102
 30
0.0
 11
41.4708
 21
36.6102
 31
0.0
  0
LINE
  8
0
 62
     0
 10
41.4708
 20
36.6102
 30
0.0
 11
41.4708
 21
39.7097
 31
0.0
  0
LINE
  8
0
 62
     0
 10
41.4708
 20
39.7097
 30
0.0
 11
40.67
 21
39.7097
 31
0.0
  0
LINE
  8
0
 62
     0
 10
40.67
 20
39.7097
 30
0.0
 11
40.67
 21
40.7099
 31
0.0
  0
LINE
  8
0
 62
     0
 10
40.67
 20
40.7099
 30
0.0
 11
26.6706
 21
40.7099
 31
0.0
  0
LINE
  8
0
 62
     0
 10
7.61919
 20
40.7099
 30
0.0
 11
7.61919
 21
39.7097
 31
0.0
  0
LINE
  8
0
 62
     0
 10
7.61919
 20
39.7097
 30
0.0
 11
6.8199
 21
39.7097
 31
0.0
  0
LINE
  8
0
 62
     0
 10
6.8199
 20
39.7097
 30
0.0
 11
6.8199
 21
36.6102
 31
0.0
  0
LINE
  8
0
 62
     0
 10
6.8199
 20
36.6102
 30
0.0
 11
7.61919
 21
36.6102
 31
0.0
  0
LINE
  8
0
 62
     0
 10
7.61919
 20
36.6102
 30
0.0
 11
7.61919
 21
30.8102
 31
0.0
  0
LINE
  8
0
 62
     0
 10
7.61919
 20
30.8102
 30
0.0
 11
6.8199
 21
30.8102
 31
0.0
  0
LINE
  8
0
 62
     0
 10
6.8199
 20
30.8102
 30
0.0
 11
6.8199
 21
27.7096
 31
0.0
  0
LINE
  8
0
 62
     0
 10
6.8199
 20
27.7096
 30
0.0
 11
7.61919
 21
27.7096
 31
0.0
  0
LINE
  8
0
 62
     0
 10
7.61919
 20
27.7096
 30
0.0
 11
7.61919
 21
26.7105
 31
0.0
  0
LINE
  8
0
 62
     0
 10
7.61919
 20
26.7105
 30
0.0
 11
21.6201
 21
26.7105
 31
0.0
  0
LINE
  8
0
 62
     0
 10
21.6201
 20
26.7105
 30
0.0
 11
21.6201
 21
27.7096
 31
0.0
  0
LINE
  8
0
 62
     0
 10
21.6201
 20
27.7096
 30
0.0
 11
22.4207
 21
27.7096
 31
0.0
  0
LINE
  8
0
 62
     0
 10
22.4207
 20
27.7096
 30
0.0
 11
22.4207
 21
30.8102
 31
0.0
  0
LINE
  8
0
 62
     0
 10
22.4207
 20
30.8102
 30
0.0
 11
21.6201
 21
30.8102
 31
0.0
  0
LINE
  8
0
 62
     0
 10
21.6201
 20
30.8102
 30
0.0
 11
21.6201
 21
36.6102
 31
0.0
  0
LINE
  8
0
 62
     0
 10
21.6201
 20
36.6102
 30
0.0
 11
22.4207
 21
36.6102
 31
0.0
  0
LINE
  8
0
 62
     0
 10
22.4207
 20
36.6102
 30
0.0
 11
22.4207
 21
39.7097
 31
0.0
  0
LINE
  8
0
 62
     0
 10
22.4207
 20
39.7097
 30
0.0
 11
21.6201
 21
39.7097
 31
0.0
  0
LINE
  8
0
 62
     0
 10
21.6201
 20
39.7097
 30
0.0
 11
21.6201
 21
40.7099
 31
0.0
  0
LINE
  8
0
 62
     0
 10
21.6201
 20
40.7099
 30
0.0
 11
7.61919
 21
40.7099
 31
0.0
  0
LINE
  8
0
 62
     0
 10
45.7207
 20
59.7613
 30
0.0
 11
45.7207
 21
58.7608
 31
0.0
  0
LINE
  8
0
 62
     0
 10
45.7207
 20
58.7608
 30
0.0
 11
44.9199
 21
58.7608
 31
0.0
  0
LINE
  8
0
 62
     0
 10
44.9199
 20
58.7608
 30
0.0
 11
44.9199
 21
55.6602
 31
0.0
  0
LINE
  8
0
 62
     0
 10
44.9199
 20
55.6602
 30
0.0
 11
45.7207
 21
55.6602
 31
0.0
  0
LINE
  8
0
 62
     0
 10
45.7207
 20
55.6602
 30
0.0
 11
45.7207
 21
49.8616
 31
0.0
  0
LINE
  8
0
 62
     0
 10
45.7207
 20
49.8616
 30
0.0
 11
44.9199
 21
49.8616
 31
0.0
  0
LINE
  8
0
 62
     0
 10
44.9199
 20
49.8616
 30
0.0
 11
44.9199
 21
46.7596
 31
0.0
  0
LINE
  8
0
 62
     0
 10
44.9199
 20
46.7596
 30
0.0
 11
45.7207
 21
46.7596
 31
0.0
  0
LINE
  8
0
 62
     0
 10
45.7207
 20
46.7596
 30
0.0
 11
45.7207
 21
45.7606
 31
0.0
  0
LINE
  8
0
 62
     0
 10
45.7207
 20
45.7606
 30
0.0
 11
59.72
 21
45.7606
 31
0.0
  0
LINE
  8
0
 62
     0
 10
59.72
 20
45.7606
 30
0.0
 11
59.72
 21
46.7596
 31
0.0
  0
LINE
  8
0
 62
     0
 10
59.72
 20
46.7596
 30
0.0
 11
60.5208
 21
46.7596
 31
0.0
  0
LINE
  8
0
 62
     0
 10
60.5208
 20
46.7596
 30
0.0
 11
60.5208
 21
49.8616
 31
0.0
  0
LINE
  8
0
 62
     0
 10
60.5208
 20
49.8616
 30
0.0
 11
59.72
 21
49.8616
 31
0.0
  0
LINE
  8
0
 62
     0
 10
59.72
 20
49.8616
 30
0.0
 11
59.72
 21
55.6602
 31
0.0
  0
LINE
  8
0
 62
     0
 10
59.72
 20
55.6602
 30
0.0
 11
60.5208
 21
55.6602
 31
0.0
  0
LINE
  8
0
 62
     0
 10
60.5208
 20
55.6602
 30
0.0
 11
60.5208
 21
58.7608
 31
0.0
  0
LINE
  8
0
 62
     0
 10
60.5208
 20
58.7608
 30
0.0
 11
59.72
 21
58.7608
 31
0.0
  0
LINE
  8
0
 62
     0
 10
59.72
 20
58.7608
 30
0.0
 11
59.72
 21
59.7613
 31
0.0
  0
LINE
  8
0
 62
     0
 10
59.72
 20
59.7613
 30
0.0
 11
45.7207
 21
59.7613
 31
0.0
  0
LINE
  8
0
 62
     0
 10
26.6706
 20
59.7613
 30
0.0
 11
26.6706
 21
58.7608
 31
0.0
  0
LINE
  8
0
 62
     0
 10
26.6706
 20
58.7608
 30
0.0
 11
25.8699
 21
58.7608
 31
0.0
  0
LINE
  8
0
 62
     0
 10
25.8699
 20
58.7608
 30
0.0
 11
25.8699
 21
55.6602
 31
0.0
  0
LINE
  8
0
 62
     0
 10
25.8699
 20
55.6602
 30
0.0
 11
26.6706
 21
55.6602
 31
0.0
  0
LINE
  8
0
 62
     0
 10
26.6706
 20
55.6602
 30
0.0
 11
26.6706
 21
49.8616
 31
0.0
  0
LINE
  8
0
 62
     0
 10
26.6706
 20
49.8616
 30
0.0
 11
25.8699
 21
49.8616
 31
0.0
  0
LINE
  8
0
 62
     0
 10
25.8699
 20
49.8616
 30
0.0
 11
25.8699
 21
46.7596
 31
0.0
  0
LINE
  8
0
 62
     0
 10
25.8699
 20
46.7596
 30
0.0
 11
26.6706
 21
46.7596
 31
0.0
  0
LINE
  8
0
 62
     0
 10
26.6706
 20
46.7596
 30
0.0
 11
26.6706
 21
45.7606
 31
0.0
  0
LINE
  8
0
 62
     0
 10
26.6706
 20
45.7606
 30
0.0
 11
40.67
 21
45.7606
 31
0.0
  0
LINE
  8
0
 62
     0
 10
40.67
 20
45.7606
 30
0.0
 11
40.67
 21
46.7596
 31
0.0
  0
LINE
  8
0
 62
     0
 10
40.67
 20
46.7596
 30
0.0
 11
41.4708
 21
46.7596
 31
0.0
  0
LINE
  8
0
 62
     0
 10
41.4708
 20
46.7596
 30
0.0
 11
41.4708
 21
49.8616
 31
0.0
  0
LINE
  8
0
 62
     0
 10
41.4708
 20
49.8616
 30
0.0
 11
40.67
 21
49.8616
 31
0.0
  0
LINE
  8
0
 62
     0
 10
40.67
 20
49.8616
 30
0.0
 11
40.67
 21
55.6602
 31
0.0
  0
LINE
  8
0
 62
     0
 10
40.67
 20
55.6602
 30
0.0
 11
41.4708
 21
55.6602
 31
0.0
  0
LINE
  8
0
 62
     0
 10
41.4708
 20
55.6602
 30
0.0
 11
41.4708
 21
58.7608
 31
0.0
  0
LINE
  8
0
 62
     0
 10
41.4708
 20
58.7608
 30
0.0
 11
40.67
 21
58.7608
 31
0.0
  0
LINE
  8
0
 62
     0
 10
40.67
 20
58.7608
 30
0.0
 11
40.67
 21
59.7613
 31
0.0
  0
LINE
  8
0
 62
     0
 10
40.67
 20
59.7613
 30
0.0
 11
26.6706
 21
59.7613
 31
0.0
  0
LINE
  8
0
 62
     0
 10
7.61919
 20
59.7613
 30
0.0
 11
7.61919
 21
58.7608
 31
0.0
  0
LINE
  8
0
 62
     0
 10
7.61919
 20
58.7608
 30
0.0
 11
6.8199
 21
58.7608
 31
0.0
  0
LINE
  8
0
 62
     0
 10
6.8199
 20
58.7608
 30
0.0
 11
6.8199
 21
55.6602
 31
0.0
  0
LINE
  8
0
 62
     0
 10
6.8199
 20
55.6602
 30
0.0
 11
7.61919
 21
55.6602
 31
0.0
  0
LINE
  8
0
 62
     0
 10
7.61919
 20
55.6602
 30
0.0
 11
7.61919
 21
49.8616
 31
0.0
  0
LINE
  8
0
 62
     0
 10
7.61919
 20
49.8616
 30
0.0
 11
6.8199
 21
49.8616
 31
0.0
  0
LINE
  8
0
 62
     0
 10
6.8199
 20
49.8616
 30
0.0
 11
6.8199
 21
46.7596
 31
0.0
  0
LINE
  8
0
 62
     0
 10
6.8199
 20
46.7596
 30
0.0
 11
7.61919
 21
46.7596
 31
0.0
  0
LINE
  8
0
 62
     0
 10
7.61919
 20
46.7596
 30
0.0
 11
7.61919
 21
45.7606
 31
0.0
  0
LINE
  8
0
 62
     0
 10
7.61919
 20
45.7606
 30
0.0
 11
21.6201
 21
45.7606
 31
0.0
  0
LINE
  8
0
 62
     0
 10
21.6201
 20
45.7606
 30
0.0
 11
21.6201
 21
46.7596
 31
0.0
  0
LINE
  8
0
 62
     0
 10
21.6201
 20
46.7596
 30
0.0
 11
22.4207
 21
46.7596
 31
0.0
  0
LINE
  8
0
 62
     0
 10
22.4207
 20
46.7596
 30
0.0
 11
22.4207
 21
49.8616
 31
0.0
  0
LINE
  8
0
 62
     0
 10
22.4207
 20
49.8616
 30
0.0
 11
21.6201
 21
49.8616
 31
0.0
  0
LINE
  8
0
 62
     0
 10
21.6201
 20
49.8616
 30
0.0
 11
21.6201
 21
55.6602
 31
0.0
  0
LINE
  8
0
 62
     0
 10
21.6201
 20
55.6602
 30
0.0
 11
22.4207
 21
55.6602
 31
0.0
  0
LINE
  8
0
 62
     0
 10
22.4207
 20
55.6602
 30
0.0
 11
22.4207
 21
58.7608
 31
0.0
  0
LINE
  8
0
 62
     0
 10
22.4207
 20
58.7608
 30
0.0
 11
21.6201
 21
58.7608
 31
0.0
  0
LINE
  8
0
 62
     0
 10
21.6201
 20
58.7608
 30
0.0
 11
21.6201
 21
59.7613
 31
0.0
  0
LINE
  8
0
 62
     0
 10
21.6201
 20
59.7613
 30
0.0
 11
7.61919
 21
59.7613
 31
0.0
  0
LINE
  8
0
 62
     0
 10
2.13183
 20
66.2122
 30
0.0
 11
1.7129
 21
65.9984
 31
0.0
  0
LINE
  8
0
 62
     0
 10
1.7129
 20
65.9984
 30
0.0
 11
1.38217
 21
65.6678
 31
0.0
  0
LINE
  8
0
 62
     0
 10
1.38217
 20
65.6678
 30
0.0
 11
1.16858
 21
65.2487
 31
0.0
  0
LINE
  8
0
 62
     0
 10
1.16858
 20
65.2487
 30
0.0
 11
1.09416
 21
64.7859
 31
0.0
  0
LINE
  8
0
 62
     0
 10
1.09416
 20
64.7859
 30
0.0
 11
1.16858
 21
64.3227
 31
0.0
  0
LINE
  8
0
 62
     0
 10
1.16858
 20
64.3227
 30
0.0
 11
1.38217
 21
63.9039
 31
0.0
  0
LINE
  8
0
 62
     0
 10
1.38217
 20
63.9039
 30
0.0
 11
1.7129
 21
63.5716
 31
0.0
  0
LINE
  8
0
 62
     0
 10
1.7129
 20
63.5716
 30
0.0
 11
2.13183
 21
63.3596
 31
0.0
  0
LINE
  8
0
 62
     0
 10
2.13183
 20
63.3596
 30
0.0
 11
2.59485
 21
63.2852
 31
0.0
  0
LINE
  8
0
 62
     0
 10
2.59485
 20
63.2852
 30
0.0
 11
3.05787
 21
63.3596
 31
0.0
  0
LINE
  8
0
 62
     0
 10
3.05787
 20
63.3596
 30
0.0
 11
3.47679
 21
63.5716
 31
0.0
  0
LINE
  8
0
 62
     0
 10
3.47679
 20
63.5716
 30
0.0
 11
3.80891
 21
63.9039
 31
0.0
  0
LINE
  8
0
 62
     0
 10
3.80891
 20
63.9039
 30
0.0
 11
4.0211
 21
64.3227
 31
0.0
  0
LINE
  8
0
 62
     0
 10
4.0211
 20
64.3227
 30
0.0
 11
4.09554
 21
64.7859
 31
0.0
  0
LINE
  8
0
 62
     0
 10
4.09554
 20
64.7859
 30
0.0
 11
4.0211
 21
65.2487
 31
0.0
  0
LINE
  8
0
 62
     0
 10
4.0211
 20
65.2487
 30
0.0
 11
3.80891
 21
65.6678
 31
0.0
  0
LINE
  8
0
 62
     0
 10
3.80891
 20
65.6678
 30
0.0
 11
3.47679
 21
65.9984
 31
0.0
  0
LINE
  8
0
 62
     0
 10
3.47679
 20
65.9984
 30
0.0
 11
3.05787
 21
66.2122
 31
0.0
  0
LINE
  8
0
 62
     0
 10
3.05787
 20
66.2122
 30
0.0
 11
2.59485
 21
66.2852
 31
0.0
  0
LINE
  8
0
 62
     0
 10
2.59485
 20
66.2852
 30
0.0
 11
2.13183
 21
66.2122
 31
0.0
  0
LINE
  8
0
 62
     0
 10
64.2828
 20
66.2122
 30
0.0
 11
63.8637
 21
65.9984
 31
0.0
  0
LINE
  8
0
 62
     0
 10
63.8637
 20
65.9984
 30
0.0
 11
63.5332
 21
65.6678
 31
0.0
  0
LINE
  8
0
 62
     0
 10
63.5332
 20
65.6678
 30
0.0
 11
63.3194
 21
65.2487
 31
0.0
  0
LINE
  8
0
 62
     0
 10
63.3194
 20
65.2487
 30
0.0
 11
63.2464
 21
64.7859
 31
0.0
  0
LINE
  8
0
 62
     0
 10
63.2464
 20
64.7859
 30
0.0
 11
63.3194
 21
64.3227
 31
0.0
  0
LINE
  8
0
 62
     0
 10
63.3194
 20
64.3227
 30
0.0
 11
63.5332
 21
63.9039
 31
0.0
  0
LINE
  8
0
 62
     0
 10
63.5332
 20
63.9039
 30
0.0
 11
63.8637
 21
63.5716
 31
0.0
  0
LINE
  8
0
 62
     0
 10
63.8637
 20
63.5716
 30
0.0
 11
64.2828
 21
63.3596
 31
0.0
  0
LINE
  8
0
 62
     0
 10
64.2828
 20
63.3596
 30
0.0
 11
64.7471
 21
63.2852
 31
0.0
  0
LINE
  8
0
 62
     0
 10
64.7471
 20
63.2852
 30
0.0
 11
65.2103
 21
63.3596
 31
0.0
  0
LINE
  8
0
 62
     0
 10
65.2103
 20
63.3596
 30
0.0
 11
65.6276
 21
63.5716
 31
0.0
  0
LINE
  8
0
 62
     0
 10
65.6276
 20
63.5716
 30
0.0
 11
65.9599
 21
63.9039
 31
0.0
  0
LINE
  8
0
 62
     0
 10
65.9599
 20
63.9039
 30
0.0
 11
66.1719
 21
64.3227
 31
0.0
  0
LINE
  8
0
 62
     0
 10
66.1719
 20
64.3227
 30
0.0
 11
66.2464
 21
64.7859
 31
0.0
  0
LINE
  8
0
 62
     0
 10
66.2464
 20
64.7859
 30
0.0
 11
66.1719
 21
65.2487
 31
0.0
  0
LINE
  8
0
 62
     0
 10
66.1719
 20
65.2487
 30
0.0
 11
65.9599
 21
65.6678
 31
0.0
  0
LINE
  8
0
 62
     0
 10
65.9599
 20
65.6678
 30
0.0
 11
65.6276
 21
65.9984
 31
0.0
  0
LINE
  8
0
 62
     0
 10
65.6276
 20
65.9984
 30
0.0
 11
65.2103
 21
66.2122
 31
0.0
  0
LINE
  8
0
 62
     0
 10
65.2103
 20
66.2122
 30
0.0
 11
64.7471
 21
66.2852
 31
0.0
  0
LINE
  8
0
 62
     0
 10
64.7471
 20
66.2852
 30
0.0
 11
64.2828
 21
66.2122
 31
0.0
  0
ENDSEC
  0
EOF
